<svg width="38" height="38" viewBox="0 0 38 38" fill="none" xmlns="http://www.w3.org/2000/svg">
<path d="M30.5 12.1328C29.656 12.4995 28.763 12.7412 27.8492 12.85C28.8095 12.2877 29.5317 11.3943 29.8803 10.3375C28.9724 10.8684 27.9807 11.2409 26.9478 11.4391C26.5129 10.9832 25.9897 10.6206 25.4103 10.3732C24.8308 10.1258 24.2071 9.99884 23.577 10C21.0261 10 18.9617 12.0344 18.9617 14.5422C18.9599 14.891 18.9999 15.2388 19.0808 15.5781C17.2516 15.4924 15.4604 15.0258 13.8219 14.2081C12.1833 13.3904 10.7335 12.2398 9.56516 10.8297C9.15527 11.5207 8.9385 12.3091 8.9375 13.1125C8.9375 14.6875 9.75922 16.0797 11 16.8953C10.2649 16.8779 9.54481 16.6833 8.90094 16.3281V16.3844C8.90094 18.5875 10.4947 20.4203 12.6041 20.8375C12.2074 20.9432 11.7986 20.9968 11.3881 20.9969C11.0968 20.9974 10.8062 20.9691 10.5205 20.9125C11.1069 22.7172 12.8136 24.0297 14.8353 24.0672C13.1925 25.3333 11.1756 26.0175 9.10156 26.0125C8.73341 26.012 8.36561 25.99 8 25.9469C10.1099 27.2942 12.5626 28.0068 15.0659 28C23.5672 28 28.2116 21.0766 28.2116 15.0719C28.2116 14.875 28.2064 14.6781 28.197 14.4859C29.0985 13.8447 29.8783 13.0479 30.5 12.1328Z" fill="white"/>
</svg>
