<svg width="38" height="38" viewBox="0 0 38 38" fill="none" xmlns="http://www.w3.org/2000/svg">
<path d="M30.8428 13.9745C30.8428 11.8652 29.2912 10.1683 27.374 10.1683C24.7772 10.0469 22.1287 10 19.4222 10H18.5784C15.8784 10 13.2253 10.0469 10.6284 10.1687C8.71591 10.1687 7.16435 11.875 7.16435 13.9844C7.04716 15.6527 6.99747 17.3214 7.00029 18.9902C6.9956 20.6589 7.04872 22.3292 7.15966 24.0011C7.15966 26.1105 8.71122 27.8214 10.6237 27.8214C13.3518 27.948 16.1503 28.0042 18.9956 27.9995C21.8456 28.0089 24.6362 27.9495 27.3675 27.8214C29.2847 27.8214 30.8362 26.1105 30.8362 24.0011C30.9487 22.3277 31.0003 20.6589 30.9956 18.9855C31.0062 17.3167 30.9553 15.6464 30.8428 13.9745ZM16.7034 23.5886V14.3777L23.5003 18.9808L16.7034 23.5886Z" fill="white"/>
</svg>
