<svg width="38" height="38" viewBox="0 0 38 38" fill="none" xmlns="http://www.w3.org/2000/svg">
<path fill-rule="evenodd" clip-rule="evenodd" d="M29.9854 10.7355C29.667 14.2492 28.2881 22.7759 27.5867 26.7115C27.2897 28.3772 26.7049 28.9354 26.1392 28.9901C24.91 29.109 23.9762 28.1368 22.7851 27.3174C20.9215 26.0353 19.8686 25.2376 18.0596 23.9868C15.9686 22.5406 17.3243 21.7464 18.5153 20.4478C18.8272 20.1076 24.245 14.9359 24.35 14.4671C24.3633 14.4081 24.3757 14.1894 24.2516 14.0739C24.1275 13.9585 23.9447 13.9984 23.8132 14.0296C23.6263 14.0739 20.6486 16.1389 14.8817 20.2247C14.0363 20.8341 13.2712 21.1301 12.5847 21.1153C11.8287 21.098 10.3746 20.6666 9.29347 20.2977C7.96755 19.8454 6.91376 19.6058 7.00558 18.8376C7.05272 18.4375 7.57796 18.0286 8.58047 17.6102C14.7535 14.7874 18.8694 12.9272 20.929 12.028C26.8099 9.4613 28.0317 9.01505 28.8281 9.00029C29.8259 8.9818 30.0666 9.84601 29.9854 10.7355Z" fill="white"/>
<path d="M29.9854 10.7355C29.667 14.2492 28.2881 22.7759 27.5867 26.7115C27.2897 28.3772 26.7049 28.9354 26.1392 28.9901C24.91 29.109 23.9762 28.1368 22.7851 27.3174C20.9215 26.0353 19.8686 25.2376 18.0596 23.9868C15.9686 22.5406 17.3243 21.7464 18.5153 20.4478C18.8272 20.1076 24.245 14.9359 24.35 14.4671C24.3633 14.4081 24.3757 14.1894 24.2516 14.0739C24.1275 13.9585 23.9447 13.9984 23.8132 14.0296C23.6263 14.0739 20.6486 16.1389 14.8817 20.2247C14.0363 20.8341 13.2712 21.1301 12.5847 21.1153C11.8287 21.098 10.3746 20.6666 9.29347 20.2977C7.96755 19.8454 6.91376 19.6058 7.00558 18.8376C7.05272 18.4375 7.57796 18.0286 8.58047 17.6102C14.7535 14.7874 18.8694 12.9272 20.929 12.028C26.8099 9.4613 28.0317 9.01505 28.8281 9.00029C29.8259 8.9818 30.0666 9.84601 29.9854 10.7355Z" fill="white"/>
</svg>
