<svg width="105" height="40" viewBox="0 0 105 40" fill="none" xmlns="http://www.w3.org/2000/svg">
<mask id="mask0_239_58" style="mask-type:luminance" maskUnits="userSpaceOnUse" x="0" y="0" width="105" height="40">
<path d="M105 0H0V40H105V0Z" fill="white"/>
</mask>
<g mask="url(#mask0_239_58)">
<path d="M20.1172 40C31.1629 40 40.1172 31.0457 40.1172 20C40.1172 8.95429 31.1629 0 20.1172 0C9.07147 0 0.117188 8.95429 0.117188 20C0.117188 31.0457 9.07147 40 20.1172 40Z" fill="#0098EA"/>
<path d="M26.9458 11.1626H13.2875C10.7762 11.1626 9.18456 13.8715 10.4479 16.0615L18.8773 30.672C19.4274 31.626 20.8059 31.626 21.356 30.672L29.7871 16.0615C31.0488 13.875 29.4571 11.1626 26.9476 11.1626H26.9458ZM18.8705 26.2905L17.0347 22.7376L12.6051 14.8152C12.3129 14.3082 12.6738 13.6584 13.2858 13.6584H18.8688V26.2922L18.8705 26.2905ZM27.6248 14.8135L23.1969 22.7393L21.3611 26.2905V13.6567H26.9441C27.5561 13.6567 27.917 14.3065 27.6248 14.8135Z" fill="white"/>
<path d="M52.7245 31.0483H57.2041V15.426H63.398V11.1704H46.5304V15.426H52.7245V31.0483Z" fill="white"/>
<path d="M74.1639 31.3843C79.8189 31.3843 84.4389 26.7648 84.4389 21.1094C84.4389 15.454 79.8189 10.8345 74.1639 10.8345C68.4803 10.8345 63.8888 15.454 63.8888 21.1094C63.8888 26.7648 68.4803 31.3843 74.1639 31.3843ZM74.1639 27.0728C70.916 27.0728 68.3683 24.329 68.3683 21.1094C68.3683 17.8898 70.916 15.146 74.1639 15.146C77.3832 15.146 79.931 17.8898 79.931 21.1094C79.931 24.329 77.3832 27.0728 74.1639 27.0728Z" fill="white"/>
<path d="M104.881 31.0483V11.1704H100.401V23.4331L90.7428 11.1704H86.9071V31.0483H91.3585V18.7576L101.046 31.0483H104.881Z" fill="white"/>
</g>
</svg>
