<svg width="32" height="32" viewBox="0 0 32 32" fill="none" xmlns="http://www.w3.org/2000/svg">
<circle cx="16" cy="16" r="16" fill="white"/>
<path d="M11.4648 22.98V20.62L17.5048 15.26C17.9582 14.86 18.2782 14.4833 18.4648 14.13C18.6515 13.7767 18.7448 13.4467 18.7448 13.14C18.7448 12.7 18.6548 12.31 18.4748 11.97C18.2948 11.6233 18.0415 11.3533 17.7148 11.16C17.3882 10.96 17.0048 10.86 16.5648 10.86C16.1048 10.86 15.6982 10.9667 15.3448 11.18C14.9982 11.3867 14.7282 11.6633 14.5348 12.01C14.3415 12.35 14.2515 12.72 14.2648 13.12H11.4648C11.4648 12.1333 11.6815 11.28 12.1148 10.56C12.5482 9.84 13.1515 9.28333 13.9248 8.89C14.6982 8.49667 15.5982 8.3 16.6248 8.3C17.5648 8.3 18.4048 8.50667 19.1448 8.92C19.8915 9.32667 20.4782 9.89667 20.9048 10.63C21.3315 11.3633 21.5448 12.2133 21.5448 13.18C21.5448 13.8933 21.4448 14.4867 21.2448 14.96C21.0448 15.4267 20.7482 15.86 20.3548 16.26C19.9615 16.6533 19.4782 17.1 18.9048 17.6L15.0048 21.02L14.7848 20.42H21.5448V22.98H11.4648Z" fill="url(#paint0_linear_239_99)"/>
<defs>
<linearGradient id="paint0_linear_239_99" x1="16.5" y1="9" x2="16.5" y2="42.1215" gradientUnits="userSpaceOnUse">
<stop stop-color="#41B8DE"/>
<stop offset="0.53214" stop-color="#0098EA"/>
</linearGradient>
</defs>
</svg>
