<svg width="32" height="32" viewBox="0 0 32 32" fill="none" xmlns="http://www.w3.org/2000/svg">
<circle cx="16" cy="16" r="16" fill="white"/>
<path d="M15.6918 23.26C14.9718 23.26 14.2851 23.1167 13.6318 22.83C12.9785 22.5367 12.4085 22.1267 11.9218 21.6C11.4418 21.0733 11.0985 20.4533 10.8918 19.74L13.5318 19.04C13.6718 19.5667 13.9451 19.9767 14.3518 20.27C14.7651 20.5567 15.2118 20.7 15.6918 20.7C16.1051 20.7 16.4818 20.6 16.8218 20.4C17.1685 20.2 17.4418 19.93 17.6418 19.59C17.8485 19.25 17.9518 18.8733 17.9518 18.46C17.9518 17.84 17.7385 17.31 17.3118 16.87C16.8918 16.4233 16.3518 16.2 15.6918 16.2C15.4918 16.2 15.2985 16.23 15.1118 16.29C14.9251 16.3433 14.7451 16.42 14.5718 16.52L13.3518 14.38L17.9318 10.58L18.1318 11.16H11.4518V8.6H20.4518V11.16L16.8918 14.6L16.8718 13.84C17.6985 13.9667 18.3951 14.2567 18.9618 14.71C19.5351 15.1567 19.9685 15.71 20.2618 16.37C20.5618 17.0233 20.7118 17.72 20.7118 18.46C20.7118 19.3667 20.4818 20.1833 20.0218 20.91C19.5618 21.63 18.9518 22.2033 18.1918 22.63C17.4318 23.05 16.5985 23.26 15.6918 23.26Z" fill="url(#paint0_linear_239_104)"/>
<defs>
<linearGradient id="paint0_linear_239_104" x1="16" y1="9" x2="16" y2="42.1215" gradientUnits="userSpaceOnUse">
<stop stop-color="#41B8DE"/>
<stop offset="0.53214" stop-color="#0098EA"/>
</linearGradient>
</defs>
</svg>
